<svg xmlns="http://www.w3.org/2000/svg" xmlns:xlink="http://www.w3.org/1999/xlink" contentStyleType="text/css" data-diagram-type="DESCRIPTION" height="390px" preserveAspectRatio="none" style="width:573px;height:390px;background:#FFFFFF;" version="1.1" viewBox="0 0 573 390" width="573px" zoomAndPan="magnify"><title>Backend Components</title><defs/><g><g class="title" data-source-line="4"><text fill="#000000" font-family="Verdana" font-size="22" font-weight="bold" lengthAdjust="spacing" textLength="239.1628" x="162.4186" y="38.5181">Backend Components</text></g><!--cluster Backend--><g class="cluster" data-entity="Backend" data-source-line="5" data-uid="ent0002" id="cluster_Backend"><path d="M13.5,62.5661 L74.4058,62.5661 A3.75,3.75 0 0 1 76.9058,65.0661 L83.9058,87.634 L563.5,87.634 A2.5,2.5 0 0 1 566,90.134 L566,381.2661 A2.5,2.5 0 0 1 563.5,383.7661 L13.5,383.7661 A2.5,2.5 0 0 1 11,381.2661 L11,65.0661 A2.5,2.5 0 0 1 13.5,62.5661" fill="#FFFFFF" style="stroke:#000000;stroke-width:1;"/><line style="stroke:#000000;stroke-width:1;" x1="11" x2="83.9058" y1="87.634" y2="87.634"/><text fill="#000000" font-family="Verdana" font-size="14" font-weight="bold" lengthAdjust="spacing" textLength="59.9058" x="15" y="79.532">Backend</text></g><!--entity AuthController--><g class="entity" data-entity="AuthController" data-source-line="6" data-uid="ent0003" id="entity_AuthController"><rect fill="#FFFFFF" height="49.0679" rx="2.5" ry="2.5" style="stroke:#000000;stroke-width:1;" width="137.4816" x="27.26" y="100.5661"/><rect fill="#FFFFFF" height="10" style="stroke:#000000;stroke-width:1;" width="15" x="144.7416" y="105.5661"/><rect fill="#FFFFFF" height="2" style="stroke:#000000;stroke-width:1;" width="4" x="142.7416" y="107.5661"/><rect fill="#FFFFFF" height="2" style="stroke:#000000;stroke-width:1;" width="4" x="142.7416" y="111.5661"/><text fill="#000000" font-family="Verdana" font-size="14" lengthAdjust="spacing" textLength="97.4816" x="42.26" y="135.532">AuthController</text></g><!--entity AuthService--><g class="entity" data-entity="AuthService" data-source-line="6" data-uid="ent0004" id="entity_AuthService"><rect fill="#FFFFFF" height="49.0679" rx="2.5" ry="2.5" style="stroke:#000000;stroke-width:1;" width="118.0077" x="38" y="209.6261"/><rect fill="#FFFFFF" height="10" style="stroke:#000000;stroke-width:1;" width="15" x="136.0077" y="214.6261"/><rect fill="#FFFFFF" height="2" style="stroke:#000000;stroke-width:1;" width="4" x="134.0077" y="216.6261"/><rect fill="#FFFFFF" height="2" style="stroke:#000000;stroke-width:1;" width="4" x="134.0077" y="220.6261"/><text fill="#000000" font-family="Verdana" font-size="14" lengthAdjust="spacing" textLength="78.0077" x="53" y="244.592">AuthService</text></g><!--entity UserRepository--><g class="entity" data-entity="UserRepository" data-source-line="7" data-uid="ent0006" id="entity_UserRepository"><rect fill="#FFFFFF" height="49.0679" rx="2.5" ry="2.5" style="stroke:#000000;stroke-width:1;" width="141.0656" x="27.47" y="318.6961"/><rect fill="#FFFFFF" height="10" style="stroke:#000000;stroke-width:1;" width="15" x="148.5356" y="323.6961"/><rect fill="#FFFFFF" height="2" style="stroke:#000000;stroke-width:1;" width="4" x="146.5356" y="325.6961"/><rect fill="#FFFFFF" height="2" style="stroke:#000000;stroke-width:1;" width="4" x="146.5356" y="329.6961"/><text fill="#000000" font-family="Verdana" font-size="14" lengthAdjust="spacing" textLength="101.0656" x="42.47" y="353.662">UserRepository</text></g><!--entity ActivityController--><g class="entity" data-entity="ActivityController" data-source-line="9" data-uid="ent0008" id="entity_ActivityController"><rect fill="#FFFFFF" height="49.0679" rx="2.5" ry="2.5" style="stroke:#000000;stroke-width:1;" width="153.4276" x="199.29" y="100.5661"/><rect fill="#FFFFFF" height="10" style="stroke:#000000;stroke-width:1;" width="15" x="332.7176" y="105.5661"/><rect fill="#FFFFFF" height="2" style="stroke:#000000;stroke-width:1;" width="4" x="330.7176" y="107.5661"/><rect fill="#FFFFFF" height="2" style="stroke:#000000;stroke-width:1;" width="4" x="330.7176" y="111.5661"/><text fill="#000000" font-family="Verdana" font-size="14" lengthAdjust="spacing" textLength="113.4276" x="214.29" y="135.532">ActivityController</text></g><!--entity CreateActivity--><g class="entity" data-entity="CreateActivity" data-source-line="9" data-uid="ent0009" id="entity_CreateActivity"><rect fill="#FFFFFF" height="49.0679" rx="2.5" ry="2.5" style="stroke:#000000;stroke-width:1;" width="130.5797" x="194.71" y="209.6261"/><rect fill="#FFFFFF" height="10" style="stroke:#000000;stroke-width:1;" width="15" x="305.2897" y="214.6261"/><rect fill="#FFFFFF" height="2" style="stroke:#000000;stroke-width:1;" width="4" x="303.2897" y="216.6261"/><rect fill="#FFFFFF" height="2" style="stroke:#000000;stroke-width:1;" width="4" x="303.2897" y="220.6261"/><text fill="#000000" font-family="Verdana" font-size="14" lengthAdjust="spacing" textLength="90.5797" x="209.71" y="244.592">CreateActivity</text></g><!--entity ActivityRepository--><g class="entity" data-entity="ActivityRepository" data-source-line="10" data-uid="ent0011" id="entity_ActivityRepository"><rect fill="#FFFFFF" height="49.0679" rx="2.5" ry="2.5" style="stroke:#000000;stroke-width:1;" width="157.6976" x="203.15" y="318.6961"/><rect fill="#FFFFFF" height="10" style="stroke:#000000;stroke-width:1;" width="15" x="340.8476" y="323.6961"/><rect fill="#FFFFFF" height="2" style="stroke:#000000;stroke-width:1;" width="4" x="338.8476" y="325.6961"/><rect fill="#FFFFFF" height="2" style="stroke:#000000;stroke-width:1;" width="4" x="338.8476" y="329.6961"/><text fill="#000000" font-family="Verdana" font-size="14" lengthAdjust="spacing" textLength="117.6976" x="218.15" y="353.662">ActivityRepository</text></g><!--entity CreateActivityType--><g class="entity" data-entity="CreateActivityType" data-source-line="12" data-uid="ent0013" id="entity_CreateActivityType"><rect fill="#FFFFFF" height="49.0679" rx="2.5" ry="2.5" style="stroke:#000000;stroke-width:1;" width="162.0095" x="388" y="100.5661"/><rect fill="#FFFFFF" height="10" style="stroke:#000000;stroke-width:1;" width="15" x="530.0095" y="105.5661"/><rect fill="#FFFFFF" height="2" style="stroke:#000000;stroke-width:1;" width="4" x="528.0095" y="107.5661"/><rect fill="#FFFFFF" height="2" style="stroke:#000000;stroke-width:1;" width="4" x="528.0095" y="111.5661"/><text fill="#000000" font-family="Verdana" font-size="14" lengthAdjust="spacing" textLength="122.0095" x="403" y="135.532">CreateActivityType</text></g><!--entity ActivityTypeRepository--><g class="entity" data-entity="ActivityTypeRepository" data-source-line="12" data-uid="ent0014" id="entity_ActivityTypeRepository"><rect fill="#FFFFFF" height="49.0679" rx="2.5" ry="2.5" style="stroke:#000000;stroke-width:1;" width="189.1274" x="360.44" y="209.6261"/><rect fill="#FFFFFF" height="10" style="stroke:#000000;stroke-width:1;" width="15" x="529.5674" y="214.6261"/><rect fill="#FFFFFF" height="2" style="stroke:#000000;stroke-width:1;" width="4" x="527.5674" y="216.6261"/><rect fill="#FFFFFF" height="2" style="stroke:#000000;stroke-width:1;" width="4" x="527.5674" y="220.6261"/><text fill="#000000" font-family="Verdana" font-size="14" lengthAdjust="spacing" textLength="149.1274" x="375.44" y="244.592">ActivityTypeRepository</text></g><!--link AuthController to AuthService--><g class="link" data-entity-1="AuthController" data-entity-2="AuthService" data-source-line="6" data-uid="lnk5" id="link_AuthController_AuthService"><path d="M96.22,150.1261 C96.39,167.7561 96.5521,185.6064 96.7221,203.2164" fill="none" id="AuthController-to-AuthService" style="stroke:#000000;stroke-width:1;"/><polygon fill="#000000" points="96.78,209.2161,100.6929,200.1779,96.7317,204.2163,92.6933,200.2551,96.78,209.2161" style="stroke:#000000;stroke-width:1;"/></g><!--link AuthService to UserRepository--><g class="link" data-entity-1="AuthService" data-entity-2="UserRepository" data-source-line="7" data-uid="lnk7" id="link_AuthService_UserRepository"><path d="M97.22,259.1961 C97.39,276.8261 97.5521,294.6664 97.7221,312.2864" fill="none" id="AuthService-to-UserRepository" style="stroke:#000000;stroke-width:1;"/><polygon fill="#000000" points="97.78,318.2861,101.693,309.2479,97.7318,313.2863,93.6934,309.3251,97.78,318.2861" style="stroke:#000000;stroke-width:1;"/></g><!--link ActivityController to CreateActivity--><g class="link" data-entity-1="ActivityController" data-entity-2="CreateActivity" data-source-line="9" data-uid="lnk10" id="link_ActivityController_CreateActivity"><path d="M272.41,150.1261 C269.77,167.7561 267.0963,185.6719 264.4663,203.2819" fill="none" id="ActivityController-to-CreateActivity" style="stroke:#000000;stroke-width:1;"/><polygon fill="#000000" points="263.58,209.2161,268.8655,200.9056,264.3185,204.2709,260.9533,199.724,263.58,209.2161" style="stroke:#000000;stroke-width:1;"/></g><!--link CreateActivity to ActivityRepository--><g class="link" data-entity-1="CreateActivity" data-entity-2="ActivityRepository" data-source-line="10" data-uid="lnk12" id="link_CreateActivity_ActivityRepository"><path d="M264.94,259.1961 C268.56,276.8261 272.2525,294.7888 275.8725,312.4088" fill="none" id="CreateActivity-to-ActivityRepository" style="stroke:#000000;stroke-width:1;"/><polygon fill="#000000" points="277.08,318.2861,279.187,308.6652,276.0738,313.3884,271.3506,310.2752,277.08,318.2861" style="stroke:#000000;stroke-width:1;"/></g><!--link CreateActivityType to ActivityTypeRepository--><g class="link" data-entity-1="CreateActivityType" data-entity-2="ActivityTypeRepository" data-source-line="12" data-uid="lnk15" id="link_CreateActivityType_ActivityTypeRepository"><path d="M465.86,150.1261 C463.55,167.7561 461.207,185.6566 458.907,203.2666" fill="none" id="CreateActivityType-to-ActivityTypeRepository" style="stroke:#000000;stroke-width:1;"/><polygon fill="#000000" points="458.13,209.2161,463.2619,200.8099,458.7775,204.2582,455.3293,199.7738,458.13,209.2161" style="stroke:#000000;stroke-width:1;"/></g><!--SRC=[POrB3i8m34JtEONflbT0Wjw0pmfb4PKHjKYJA74hHOYx0_r849Rp_6QyaGuzA5Z3JWcB1UrDUuUxKkFxu1sS91NUoDn0rNAhwA68Bhj1kiOxYTvQH4rrlPtX4N7a5dgLrZmRvuHuGF29nSUirMIrmYDB_fjh8enWFK-B1LhUBh4S_fLFEQ0eVD1twVa2]--></g></svg>