<svg xmlns="http://www.w3.org/2000/svg" xmlns:xlink="http://www.w3.org/1999/xlink" contentStyleType="text/css" data-diagram-type="DESCRIPTION" height="383px" preserveAspectRatio="none" style="width:238px;height:383px;background:#FFFFFF;" version="1.1" viewBox="0 0 238 383" width="238px" zoomAndPan="magnify"><title>System Context</title><defs/><g><g class="title" data-source-line="5"><text fill="#000000" font-family="Verdana" font-size="22" font-weight="bold" lengthAdjust="spacing" textLength="172.7006" x="28.4023" y="38.5181">System Context</text></g><!--entity User--><g class="entity" data-entity="User" data-source-line="6" data-uid="ent0002" id="entity_User"><ellipse cx="91.2489" cy="69.9641" fill="#FFFFFF" rx="8" ry="8" style="stroke:#000000;stroke-width:1;"/><path d="M91.2489,77.9641 L91.2489,104.9641 M78.2489,85.9641 L104.2489,85.9641 M91.2489,104.9641 L78.2489,119.9641 M91.2489,104.9641 L104.2489,119.9641" fill="none" style="stroke:#000000;stroke-width:1;"/><text fill="#000000" font-family="Verdana" font-size="14" lengthAdjust="spacing" textLength="30.6179" x="75.94" y="136.93">User</text></g><!--entity FE--><g class="entity" data-entity="FE" data-source-line="7" data-uid="ent0003" id="entity_FE"><rect fill="#FFFFFF" height="39.0679" rx="2.5" ry="2.5" style="stroke:#000000;stroke-width:1;" width="149.7235" x="16.39" y="220.0241"/><text fill="#000000" font-family="Verdana" font-size="14" lengthAdjust="spacing" textLength="129.7235" x="26.39" y="244.99">ReactVite- Frontend</text></g><!--entity BE--><g class="entity" data-entity="BE" data-source-line="8" data-uid="ent0004" id="entity_BE"><rect fill="#FFFFFF" height="39.0679" rx="2.5" ry="2.5" style="stroke:#000000;stroke-width:1;" width="158.5015" x="12" y="338.0941"/><text fill="#000000" font-family="Verdana" font-size="14" lengthAdjust="spacing" textLength="138.5015" x="22" y="363.06">SpringBoot- Backend</text></g><!--link User to FE--><g class="link" data-entity-1="User" data-entity-2="FE" data-source-line="9" data-uid="lnk5" id="link_User_FE"><path d="M91.25,141.4941 C91.25,167.1741 91.25,193.5041 91.25,213.6041" fill="none" id="User-to-FE" style="stroke:#000000;stroke-width:1;"/><polygon fill="#000000" points="91.25,219.6041,95.25,210.6041,91.25,214.6041,87.25,210.6041,91.25,219.6041" style="stroke:#000000;stroke-width:1;"/><text fill="#000000" font-family="Verdana" font-size="13" lengthAdjust="spacing" textLength="13.91" x="92.25" y="185.9211">UI</text></g><!--link FE to BE--><g class="link" data-entity-1="FE" data-entity-2="BE" data-source-line="10" data-uid="lnk6" id="link_FE_BE"><path d="M91.25,259.4641 C91.25,281.0541 91.25,310.1541 91.25,331.7341" fill="none" id="FE-to-BE" style="stroke:#000000;stroke-width:1;"/><polygon fill="#000000" points="91.25,337.7341,95.25,328.7341,91.25,332.7341,87.25,328.7341,91.25,337.7341" style="stroke:#000000;stroke-width:1;"/><text fill="#000000" font-family="Verdana" font-size="13" lengthAdjust="spacing" textLength="138.2551" x="92.25" y="303.9911">REST/JSON over HTTPS</text></g><!--SRC=[JSmn3y8W40NWdL_nx4xS7HmmDEfGJQ7kf5ugiOK6BaR_lJ2OE5tUo_TkmmzQ2EliV13iUIQOJsPQS8Y1wSt2ZHmJXan991hPXQcOfgVItpoJH9kg3FS6BgFL_ygioOT9nSWIoetFdr9Qr8UGSbyMs64uYN9hL3NssjZjsLmwn5TXHsklvWi0]--></g></svg>